<?xml version="1.0" encoding="utf-8"?>
<!-- Generator: Adobe Illustrator 19.1.0, SVG Export Plug-In . SVG Version: 6.00 Build 0)  -->
<svg version="1.1" id="Layer_1" xmlns="http://www.w3.org/2000/svg" xmlns:xlink="http://www.w3.org/1999/xlink" x="0px" y="0px"
	 viewBox="0 0 87.328 87.327" enable-background="new 0 0 87.328 87.327" xml:space="preserve">
<g>
	<g>
		<path fill="#00749B" d="M6.206,43.662c0,14.826,8.616,27.639,21.111,33.711L9.449,28.418C7.372,33.077,6.206,38.232,6.206,43.662z
			"/>
		<path fill="#00749B" d="M68.949,41.772c0-4.629-1.663-7.835-3.089-10.33c-1.898-3.086-3.679-5.699-3.679-8.784
			c0-3.443,2.611-6.648,6.29-6.648c0.166,0,0.323,0.021,0.485,0.03c-6.664-6.106-15.542-9.834-25.294-9.834
			c-13.086,0-24.598,6.714-31.296,16.883c0.88,0.027,1.708,0.045,2.411,0.045c3.917,0,9.982-0.476,9.982-0.476
			c2.019-0.119,2.257,2.847,0.24,3.085c0,0-2.03,0.239-4.287,0.358l13.64,40.573l8.198-24.584l-5.836-15.989
			c-2.017-0.119-3.928-0.358-3.928-0.358c-2.018-0.118-1.782-3.204,0.237-3.085c0,0,6.185,0.476,9.866,0.476
			c3.917,0,9.982-0.476,9.982-0.476c2.021-0.119,2.258,2.847,0.24,3.085c0,0-2.033,0.239-4.287,0.358l13.536,40.265l3.736-12.484
			C67.717,48.699,68.949,44.979,68.949,41.772z"/>
		<path fill="#00749B" d="M44.321,46.939L33.082,79.596c3.355,0.986,6.904,1.525,10.581,1.525c4.361,0,8.545-0.754,12.438-2.123
			c-0.101-0.16-0.191-0.33-0.267-0.516L44.321,46.939z"/>
		<path fill="#00749B" d="M76.53,25.692c0.161,1.193,0.252,2.473,0.252,3.851c0,3.8-0.71,8.073-2.848,13.416l-11.441,33.08
			c11.136-6.494,18.626-18.559,18.626-32.377C81.119,37.15,79.456,31.027,76.53,25.692z"/>
		<path fill="#00749B" d="M43.663,0C19.587,0,0,19.587,0,43.662c0,24.079,19.587,43.664,43.663,43.664
			c24.074,0,43.665-19.586,43.665-43.664C87.328,19.587,67.737,0,43.663,0z M43.663,85.325c-22.971,0-41.661-18.689-41.661-41.663
			c0-22.971,18.69-41.66,41.661-41.66c22.971,0,41.659,18.689,41.659,41.66C85.322,66.635,66.634,85.325,43.663,85.325z"/>
	</g>
</g>
<g>
</g>
<g>
</g>
<g>
</g>
<g>
</g>
<g>
</g>
<g>
</g>
</svg>
